<svg width="1706.67" height="964" viewBox="0 0 1280 723" xmlns="http://www.w3.org/2000/svg" xmlns:xlink="http://www.w3.org/1999/xlink" overflow="hidden"><g transform="matrix(0.1 0 0 -0.1 0 723)"><path d="M8563 7210C8508 7177 8486 7108 8510 7046 8519 7022 8515 7018 8398 6951 8289 6888 8274 6882 8260 6895 8236 6917 8203 6913 8154 6885 8107 6857 8095 6835 8105 6790 8112 6759 8178 6651 8213 6613 8224 6600 8232 6588 8229 6586 8220 6577 5087 4670 5085 4672 5085 4674 5055 4749 5020 4840 4986 4931 4930 5069 4897 5148 4838 5288 4836 5291 4810 5285 4783 5279 4782 5280 4690 5507 4640 5632 4549 5856 4489 6003 4429 6151 4380 6277 4380 6283 4381 6290 4403 6312 4430 6333 4457 6353 4480 6379 4482 6389 4486 6412 4712 6598 4743 6604 4755 6607 4871 6616 5001 6625 5313 6647 5357 6657 5315 6700 5243 6771 4907 6780 3665 6744 3456 6738 3443 6737 3403 6714 3322 6667 3353 6630 3518 6577 3577 6557 3637 6539 3652 6536 3666 6533 3726 6487 3784 6435L3889 6339 3972 6350C4092 6365 4091 6365 4080 6334 4065 6294 4066 6293 4135 6279 4171 6272 4205 6261 4211 6254 4216 6247 4315 6011 4429 5729 4568 5386 4635 5211 4628 5203 4622 5196 4632 5160 4659 5098 4748 4888 4885 4531 4879 4526 4877 4525 4725 4410 4541 4271 4358 4132 4207 4020 4206 4022 4206 4024 4194 4037 4181 4052 4161 4075 4159 4082 4170 4095 4182 4109 4178 4116 4147 4147 4117 4177 4109 4181 4096 4171 4084 4161 4075 4163 4045 4187 4009 4216 4002 4234 4021 4245 4028 4250 4023 4261 4008 4277 3974 4314 3951 4324 3934 4309 3923 4300 3912 4303 3880 4325 3852 4345 3842 4356 3850 4364 3868 4382 3861 4397 3819 4424 3781 4450 3778 4450 3765 4434 3753 4417 3750 4417 3711 4443 3676 4466 3671 4473 3680 4489 3688 4505 3683 4512 3644 4535 3600 4561 3598 4561 3585 4543 3572 4526 3570 4526 3533 4547 3506 4563 3496 4575 3497 4590 3499 4605 3489 4616 3455 4632 3412 4653 3409 4653 3397 4636 3385 4619 3382 4619 3341 4636 3306 4650 3299 4656 3304 4674 3309 4693 3302 4699 3264 4713 3216 4731 3200 4729 3200 4704 3200 4687 3203 4687 3146 4706 3107 4719 3099 4726 3103 4742 3109 4762 3096 4769 3037 4784 3013 4790 3007 4787 3003 4770 2998 4752 2992 4750 2966 4755 2907 4767 2900 4771 2900 4794 2900 4814 2893 4818 2853 4824 2808 4830 2798 4825 2788 4797 2786 4793 2764 4793 2737 4796 2697 4802 2690 4806 2690 4825 2690 4845 2684 4848 2640 4852 2597 4855 2590 4852 2588 4835 2585 4818 2577 4815 2535 4815 2491 4815 2485 4818 2482 4838 2479 4857 2473 4860 2430 4860 2387 4860 2381 4857 2378 4838 2375 4818 2368 4815 2323 4812 2275 4809 2270 4811 2270 4829 2270 4847 2264 4850 2220 4850 2174 4850 2170 4848 2170 4826 2170 4806 2164 4802 2123 4796 2078 4790 2068 4795 2058 4823 2056 4827 2034 4827 2007 4824 1967 4818 1960 4814 1960 4794 1960 4771 1953 4767 1894 4755 1868 4750 1862 4752 1857 4770 1853 4787 1847 4790 1823 4784 1762 4769 1748 4761 1755 4741 1760 4726 1752 4719 1713 4706 1667 4690 1658 4692 1648 4723 1646 4727 1624 4723 1597 4714 1556 4700 1551 4695 1556 4675 1561 4656 1555 4650 1519 4636 1478 4620 1475 4620 1463 4635 1452 4651 1448 4651 1405 4634 1366 4618 1360 4612 1365 4593 1369 4574 1363 4567 1329 4550 1292 4531 1286 4530 1271 4544 1256 4558 1250 4557 1212 4534 1176 4512 1171 4506 1180 4490 1189 4473 1184 4467 1150 4444 1113 4419 1108 4418 1093 4433 1079 4447 1074 4446 1039 4423 1000 4398 990 4377 1010 4365 1016 4361 1005 4346 984 4329 944 4298 935 4295 925 4310 915 4326 903 4322 866 4289 836 4263 832 4256 842 4240 849 4229 852 4220 850 4218 847 4216 830 4202 813 4186 785 4161 778 4159 765 4170 751 4182 744 4178 713 4147 682 4116 678 4109 690 4095 701 4082 699 4075 674 4047 658 4030 644 4014 643 4012 642 4010 633 4013 622 4019 605 4028 597 4024 571 3995 536 3955 533 3942 555 3934 567 3929 565 3921 542 3889 514 3849 501 3843 483 3861 475 3869 464 3859 442 3827 414 3787 412 3782 427 3767 442 3752 441 3748 416 3709 396 3679 385 3671 377 3679 359 3697 353 3693 326 3648 303 3610 302 3604 316 3589 330 3574 329 3568 311 3532 295 3500 286 3493 268 3497 249 3500 242 3494 227 3458 211 3418 211 3414 226 3403 242 3391 242 3388 226 3345 211 3306 205 3301 185 3306 165 3311 160 3306 146 3264 130 3217 132 3208 163 3198 167 3196 163 3174 154 3147 140 3106 135 3101 116 3106 96 3111 92 3106 83 3063 71 3012 73 3000 96 3000 113 3000 113 3000 99 2944 89 2907 84 2899 69 2903 46 2909 44 2907 36 2849 30 2807 31 2802 51 2797 69 2792 72 2786 66 2759 63 2742 60 2719 60 2708 60 2694 54 2690 38 2692 17 2695 15 2690 12 2643 9 2595 11 2590 29 2590 47 2590 50 2584 50 2540 50 2493 48 2490 25 2490 1 2490 0 2487 0 2436 0 2387 2 2381 22 2378 42 2375 45 2368 48 2329 51 2288 48 2282 28 2277 7 2271 5 2266 8 2220 12 2176 14 2170 35 2170 53 2170 59 2163 64 2133 73 2077 72 2073 49 2067 30 2062 29 2057 35 2018 44 1964 47 1960 70 1960 84 1960 92 1949 100 1920 112 1877 107 1860 84 1860 67 1860 67 1857 84 1800 94 1764 102 1755 120 1755 138 1755 145 1746 155 1713 166 1675 166 1670 149 1658 131 1645 131 1643 147 1598 162 1558 168 1552 185 1556 202 1560 210 1553 225 1519 244 1479 244 1477 225 1464 206 1450 207 1449 228 1405 247 1366 253 1360 273 1365 293 1370 299 1365 315 1329 333 1290 333 1287 317 1275 301 1264 302 1259 326 1216 349 1175 354 1171 372 1181 394 1193 397 1191 427 1136 441 1109 441 1105 425 1094 409 1082 410 1078 436 1043 452 1022 465 1004 466 1002 467 1000 477 1003 488 1009 504 1018 512 1013 538 981 566 946 567 941 553 927 539 913 540 908 570 870 600 833 604 830 619 844 635 858 639 857 670 825 701 793 703 787 691 768 679 749 682 744 714 712 747 678 750 677 768 693 785 709 788 708 820 675 846 648 851 637 842 628 824 610 827 604 870 570 908 540 912 539 924 555 936 572 939 571 974 544 1003 521 1009 510 1005 490 1001 470 1006 461 1035 442 1076 416 1086 415 1097 435 1104 447 1112 446 1145 423 1167 409 1187 395 1189 394 1191 392 1187 383 1180 375 1169 362 1170 357 1186 345 1196 337 1218 325 1234 319 1258 308 1264 309 1271 323 1280 338 1285 337 1325 318 1363 300 1369 293 1364 273 1359 253 1364 247 1401 231 1443 213 1446 213 1460 230 1474 247 1477 247 1515 230 1546 217 1555 208 1555 189 1555 170 1564 162 1602 148 1648 131 1649 131 1655 151 1662 173 1676 172 1735 150 1755 142 1760 135 1755 121 1750 104 1756 99 1792 90 1816 83 1839 76 1843 73 1848 70 1854 78 1857 90 1862 110 1867 111 1903 106 1953 98 1960 93 1960 70 1960 57 1969 49 1985 45 1999 42 2021 38 2034 35 2052 31 2059 35 2063 50 2072 83 2170 74 2170 40 2170 19 2189 10 2236 10 2264 10 2270 14 2270 31 2270 49 2275 51 2322 48 2368 45 2375 42 2378 23 2381 3 2387 0 2431 0 2477 0 2480 2 2480 25 2480 49 2483 50 2535 50 2583 50 2590 48 2590 30 2590 14 2597 10 2624 10 2671 10 2690 19 2690 40 2690 61 2709 70 2755 70 2780 70 2790 65 2795 50 2800 35 2808 31 2826 35 2839 38 2861 42 2875 45 2891 49 2900 57 2900 70 2900 93 2907 98 2957 106 2993 111 2998 110 3003 90 3006 78 3012 70 3017 73 3021 76 3044 83 3068 89 3105 99 3109 104 3104 124 3100 143 3103 148 3127 153 3142 157 3165 162 3177 166 3193 170 3200 167 3205 151 3211 131 3212 131 3258 149 3294 163 3305 172 3305 190 3305 207 3315 217 3347 231 3389 249 3390 249 3400 230 3410 211 3411 211 3453 230 3487 246 3494 254 3492 273 3490 291 3499 300 3533 317 3573 336 3577 337 3587 321 3597 306 3602 307 3644 330 3691 355 3698 364 3680 375 3663 385 3669 394 3706 418 3738 439 3746 440 3766 429 3786 419 3794 420 3825 444 3863 473 3866 480 3849 497 3842 504 3851 517 3881 541 3920 572 3923 573 3936 556 3948 539 3951 540 3989 570 4023 598 4028 606 4019 622 4010 639 4014 648 4041 676 4072 708 4075 709 4092 693 4110 677 4113 678 4146 712 4178 744 4181 749 4169 768 4157 787 4159 793 4190 825 4221 857 4225 858 4241 844 4256 830 4260 833 4290 870 4320 908 4321 913 4307 927 4293 941 4294 946 4322 981 4348 1013 4356 1018 4372 1009 4383 1003 4393 1000 4394 1002 4395 1004 4408 1022 4424 1043 4451 1079 4451 1082 4434 1095 4418 1106 4417 1111 4428 1131 4456 1183 4467 1192 4487 1182 4503 1173 4510 1178 4533 1217 4559 1259 4560 1263 4543 1275 4527 1287 4527 1290 4545 1329 4561 1365 4567 1370 4587 1365 4608 1360 4614 1365 4631 1405 4651 1449 4651 1452 4634 1464 4618 1476 4618 1480 4632 1516 4644 1545 4654 1555 4670 1554 4687 1553 4696 1563 4711 1597 4721 1620 4732 1640 4734 1640 4737 1640 4904 1667 5106 1700 5307 1733 5480 1760 5489 1760 5505 1760 5598 1530 5827 923 5831 913 5817 910 5776 910L5720 910 5720 840 5720 770 5935 770 6150 770 6150 840 6150 909 6078 912 6007 915 5847 1379C5696 1816 5688 1843 5706 1852 5741 1871 5848 1987 5870 2031 5932 2152 5950 2304 5916 2415 5900 2464 5901 2465 5923 2483 6036 2574 6096 2630 6216 2753 6462 3005 6682 3286 7036 3805 7281 4164 7464 4453 7776 4978 8008 5368 8132 5558 8204 5637 8251 5689 8372 5784 8497 5868L8559 5910 8604 5828C8637 5767 8646 5742 8639 5729 8634 5719 8630 5693 8630 5671 8630 5633 8632 5631 8686 5606 8751 5576 8851 5480 8901 5400 8954 5316 9278 4606 9269 4594 9264 4589 9263 4575 9266 4564 9269 4550 9261 4540 9229 4523 9190 4501 9186 4501 9174 4517 9162 4534 9159 4534 9123 4513 9094 4496 9085 4485 9085 4464 9085 4444 9076 4431 9050 4415 9018 4394 9013 4394 8998 4407 8980 4423 8974 4420 8901 4364 8899 4362 8903 4353 8911 4344 8923 4330 8920 4323 8885 4294 8848 4263 8844 4262 8827 4277 8810 4293 8807 4292 8773 4258 8742 4226 8738 4219 8750 4205 8757 4196 8759 4186 8754 4182 8749 4178 8733 4164 8718 4151 8695 4131 8688 4129 8675 4140 8661 4152 8654 4148 8623 4118 8592 4086 8589 4081 8601 4062 8613 4043 8611 4037 8581 4006 8553 3977 8545 3973 8529 3983 8519 3989 8509 3992 8507 3990 8506 3987 8492 3970 8477 3951 8452 3920 8451 3916 8465 3900 8480 3883 8475 3869 8429 3817 8425 3812 8413 3813 8402 3819 8385 3828 8379 3824 8356 3790 8325 3743 8325 3741 8346 3725 8361 3715 8360 3709 8335 3672 8312 3637 8305 3632 8289 3640 8274 3649 8267 3643 8244 3605 8219 3561 8218 3558 8236 3546 8253 3533 8253 3531 8235 3491 8219 3455 8213 3450 8193 3455 8173 3460 8167 3454 8149 3414 8133 3376 8132 3365 8142 3358 8149 3354 8158 3350 8161 3350 8165 3350 8160 3329 8151 3304 8138 3266 8131 3259 8113 3263 8095 3266 8088 3260 8075 3228 8056 3180 8056 3160 8075 3160 8093 3160 8094 3148 8079 3097 8071 3065 8065 3059 8049 3063 8028 3069 8018 3053 8007 2994 8002 2967 8004 2961 8021 2957 8039 2952 8041 2946 8035 2918 8023 2857 8020 2852 8000 2857 7980 2862 7978 2856 7967 2786 7963 2764 7967 2756 7982 2752 7998 2748 8001 2740 7998 2701 7995 2662 7992 2655 7973 2652 7954 2649 7950 2642 7949 2609 7948 2588 7947 2564 7946 2558 7945 2551 7955 2544 7968 2542 7986 2539 7990 2532 7990 2505 7990 2459 7981 2440 7959 2440 7943 2440 7940 2432 7940 2385 7940 2333 7941 2330 7965 2330 7988 2330 7990 2327 7990 2280 7990 2237 7987 2230 7970 2230 7948 2230 7945 2209 7956 2151 7961 2127 7968 2120 7986 2120 8006 2120 8010 2115 8010 2091 8010 2075 8013 2054 8016 2045 8021 2034 8016 2027 8000 2023 7980 2018 7979 2013 7985 1971 7994 1914 7996 1911 8019 1917 8039 1922 8042 1916 8055 1852 8059 1835 8058 1820 8053 1820 8026 1819 8021 1804 8034 1760 8045 1724 8052 1715 8070 1715 8089 1715 8096 1706 8108 1672 8121 1633 8121 1628 8105 1616 8089 1604 8088 1600 8102 1559 8115 1522 8121 1515 8141 1517 8161 1519 8168 1512 8183 1477 8200 1437 8200 1434 8183 1423 8167 1411 8167 1407 8188 1365 8207 1326 8213 1320 8233 1325 8252 1330 8259 1324 8277 1287 8296 1247 8297 1243 8281 1233 8266 1223 8267 1218 8289 1177 8310 1139 8317 1133 8331 1141 8356 1154 8355 1154 8383 1111 8406 1076 8407 1071 8393 1057 8378 1042 8379 1037 8405 1000 8435 956 8440 954 8459 973 8469 983 8477 978 8500 950 8530 914 8538 890 8520 890 8502 890 8510 866 8539 832 8563 804 8571 800 8587 809 8604 817 8613 813 8640 785 8668 756 8671 749 8660 735 8648 721 8652 714 8683 682 8712 654 8722 648 8732 658 8749 675 8755 674 8795 639 8828 610 8829 606 8815 590 8801 575 8803 571 8841 540 8878 511 8883 509 8897 523 8911 537 8917 536 8951 513 8991 487 8997 476 8980 465 8962 454 8969 443 9011 416 9048 391 9053 390 9069 404 9084 418 9090 417 9128 394 9162 373 9169 365 9160 355 9144 336 9154 324 9201 300 9235 282 9241 281 9246 295 9254 314 9271 314 9314 293 9343 279 9349 273 9344 253 9339 233 9344 227 9381 210 9424 191 9425 191 9440 209 9454 227 9457 227 9495 210 9525 197 9535 187 9535 170 9535 151 9544 144 9579 132 9619 119 9624 119 9635 134 9649 153 9653 153 9703 139 9735 131 9741 125 9737 109 9731 88 9745 79 9808 65 9836 59 9840 61 9840 80 9840 100 9843 101 9883 95 9936 86 9940 83 9940 60 9940 41 9948 37 10014 27 10036 23 10044 27 10048 42 10052 58 10060 61 10099 58 10137 56 10146 51 10148 34 10151 16 10160 11 10198 7 10252 1 10260 4 10260 31 10260 46 10267 50 10294 50 10341 50 10360 41 10360 19 10360 3 10368 0 10415 0 10467 0 10470 1 10470 25 10470 48 10473 50 10520 50 10563 50 10570 47 10570 30 10570 8 10591 5 10650 16 10675 21 10681 27 10677 42 10671 63 10676 66 10734 74 10766 78 10773 76 10777 59 10782 40 10788 39 10829 45 10886 54 10889 56 10883 79 10878 99 10884 102 10946 115 10970 120 10979 117 10986 102 10994 84 10998 83 11043 97 11083 108 11091 115 11088 132 11086 149 11093 156 11128 168 11168 181 11172 181 11184 165 11196 149 11200 148 11241 162 11278 175 11285 181 11283 201 11281 221 11288 228 11323 243 11363 260 11366 260 11377 243 11389 227 11393 227 11435 248 11474 267 11480 273 11475 293 11470 313 11475 319 11511 335 11549 353 11553 353 11564 338 11575 323 11580 324 11623 349 11658 369 11667 379 11660 390 11646 413 11647 415 11689 443 11724 466 11729 467 11743 453 11758 438 11763 439 11800 465 11841 493 11848 504 11830 515 11813 526 11819 537 11856 565 11888 589 11893 590 11908 577 11923 563 11929 565 11963 595 11995 623 12000 632 11991 648 11983 664 11987 673 12015 700 12044 728 12051 731 12065 720 12079 708 12086 712 12118 743 12146 772 12152 782 12142 792 12125 809 12126 815 12161 855 12190 888 12194 889 12210 875 12225 861 12229 863 12260 901 12290 938 12291 943 12276 958 12261 974 12265 984 12317 1049 12319 1052 12326 1048 12332 1042 12350 1024 12355 1027 12384 1071 12409 1107 12410 1114 12397 1128 12383 1143 12384 1150 12407 1188 12427 1221 12435 1228 12446 1219 12464 1204 12477 1214 12500 1261 12518 1295 12519 1301 12505 1306 12485 1314 12486 1338 12509 1377 12524 1401 12534 1407 12549 1403 12566 1399 12574 1406 12590 1441 12609 1484 12609 1485 12591 1500 12573 1514 12573 1517 12590 1555 12603 1585 12613 1595 12630 1595 12649 1595 12656 1604 12668 1639 12681 1679 12681 1684 12666 1695 12647 1709 12647 1713 12661 1763 12669 1795 12675 1801 12691 1797 12712 1791 12721 1805 12735 1867 12741 1896 12739 1900 12720 1900 12700 1900 12699 1903 12705 1943 12714 1996 12717 2000 12740 2000 12753 2000 12761 2009 12765 2025 12768 2039 12772 2062 12775 2076 12780 2096 12776 2103 12760 2107 12742 2112 12739 2119 12742 2159 12745 2198 12748 2205 12768 2208 12784 2211 12790 2218 12790 2238 12790 2253 12793 2275 12796 2287 12801 2305 12797 2310 12776 2316 12751 2322 12749 2326 12752 2369 12755 2408 12758 2415 12778 2418 12799 2421 12801 2426 12798 2473 12795 2518 12792 2525 12773 2528 12753 2531 12750 2537 12750 2581 12750 2623 12753 2630 12770 2630 12792 2630 12795 2651 12784 2709 12779 2734 12774 2739 12759 2735 12738 2728 12735 2734 12726 2794 12722 2827 12724 2833 12742 2838 12759 2842 12761 2848 12756 2879 12753 2899 12750 2921 12750 2928 12750 2934 12739 2940 12725 2940 12706 2940 12699 2947 12691 2978 12677 3028 12677 3040 12694 3040 12717 3040 12719 3051 12704 3102 12692 3141 12686 3149 12668 3147 12652 3145 12644 3154 12633 3188 12619 3228 12619 3232 12636 3244 12653 3257 12653 3259 12636 3304 12621 3343 12615 3349 12596 3344 12577 3340 12571 3345 12557 3382 12541 3423 12541 3426 12557 3438 12573 3449 12573 3453 12552 3495 12533 3534 12527 3540 12507 3535 12487 3530 12481 3535 12465 3571 12447 3609 12447 3613 12462 3624 12477 3635 12477 3640 12453 3679 12432 3714 12424 3721 12405 3716 12387 3711 12377 3718 12357 3749 12334 3784 12333 3789 12347 3803 12363 3819 12358 3831 12303 3899 12301 3902 12294 3898 12288 3892 12270 3874 12265 3877 12236 3915 12213 3944 12211 3952 12222 3969 12233 3987 12230 3994 12200 4025 12177 4048 12163 4057 12156 4050 12139 4033 12126 4039 12097 4075 12073 4105 12071 4114 12081 4126 12091 4139 12087 4147 12057 4178 12023 4212 12020 4213 12002 4197 11985 4181 11982 4182 11950 4215 11922 4244 11918 4254 11926 4267 11935 4281 11929 4290 11896 4318 11859 4349 11855 4350 11843 4334 11831 4318 11828 4319 11790 4345 11747 4375 11744 4380 11762 4398 11768 4404 11772 4411 11769 4413 11767 4415 11747 4429 11726 4443 11690 4467 11685 4468 11669 4454 11653 4440 11648 4441 11611 4466 11578 4488 11572 4495 11581 4507 11595 4523 11591 4527 11538 4559 11501 4581 11501 4581 11490 4561L11480 4540 11436 4562C11401 4579 11392 4588 11393 4607 11395 4626 11386 4634 11353 4650 11311 4669 11310 4669 11300 4650 11290 4632 11288 4632 11244 4648 11206 4662 11200 4668 11204 4686 11209 4705 11203 4710 11162 4724 11117 4740 11114 4740 11102 4722 11090 4704 11085 4704 11047 4715 11013 4725 11005 4732 11005 4751 11005 4770 10997 4776 10956 4786 10911 4798 10907 4797 10902 4778 10898 4761 10892 4759 10861 4764 10841 4767 10819 4770 10813 4770 10806 4770 10800 4781 10800 4794 10800 4812 10793 4819 10769 4824 10710 4835 10690 4832 10690 4809 10690 4794 10686 4790 10674 4794 10665 4797 10643 4800 10624 4800 10594 4800 10590 4803 10590 4825 10590 4849 10587 4850 10535 4850 10487 4850 10480 4848 10480 4830 10480 4813 10473 4810 10430 4810 10383 4810 10380 4812 10380 4836 10380 4860 10378 4861 10328 4858 10282 4855 10275 4852 10272 4833 10269 4813 10263 4810 10219 4810 10176 4810 10170 4812 10170 4831 10170 4850 10166 4852 10139 4846 10122 4843 10096 4840 10083 4840 10062 4840 10059 4836 10063 4819 10069 4797 10065 4795 10007 4785 9973 4780 9968 4781 9963 4800 9958 4819 9952 4821 9921 4815 9859 4804 9852 4800 9857 4781 9863 4758 9857 4754 9804 4746 9770 4740 9762 4742 9754 4758 9746 4775 9742 4775 9697 4762 9653 4750 9649 4746 9654 4724 9658 4711 9656 4700 9651 4700 9646 4700 9635 4697 9626 4694 9614 4690 9605 4700 9591 4731 9581 4755 9561 4801 9547 4833L9521 4891 9488 4874C9470 4865 9454 4856 9452 4855 9451 4854 9464 4823 9481 4785 9510 4720 9513 4690 9490 4690 9484 4690 9457 4736 9431 4793 9404 4849 9272 5119 9136 5394 8922 5827 8888 5891 8875 5880 8866 5873 8856 5870 8853 5874 8849 5878 8749 6062 8630 6283 8466 6586 8409 6685 8396 6683 8376 6682 8334 6768 8347 6781 8351 6785 8436 6835 8534 6892 8632 6949 8722 7007 8732 7021 8815 7132 8681 7282 8563 7210ZM4660 6586C4613 6543 4481 6440 4472 6440 4466 6440 4458 6449 4455 6460 4447 6485 4456 6485 4270 6459 4124 6438 4099 6430 4088 6399 4086 6395 4043 6386 3992 6380L3900 6368 3825 6436C3783 6473 3751 6505 3754 6507 3756 6509 3795 6504 3840 6496 3981 6469 4045 6474 4199 6524 4285 6552 4370 6572 4430 6579 4482 6585 4539 6592 4555 6594 4572 6595 4605 6598 4630 6599 4668 6600 4672 6598 4660 6586ZM8068 6108C8075 6101 8080 6088 8080 6079 8080 6048 7991 5884 7939 5819 7853 5712 7720 5505 7534 5193 6972 4248 6539 3607 6164 3165 6032 3009 5817 2797 5726 2733L5696 2713 5651 2736C5626 2748 5593 2762 5578 2765 5547 2773 5545 2781 5535 2915 5510 3238 5395 3747 5231 4250 5184 4393 5174 4438 5183 4446 5217 4479 7898 6102 7929 6109 7983 6122 8054 6122 8068 6108ZM2700 4376C2752 4368 2775 4361 2777 4350 2779 4342 2720 3998 2647 3585L2514 2835 2465 2835 2415 2835 2283 3580C2211 3990 2151 4337 2151 4352 2150 4378 2152 4378 2223 4384 2262 4388 2318 4392 2345 4393 2422 4398 2617 4388 2700 4376ZM10515 4338C10512 4309 10489 3988 10465 3625 10409 2795 10414 2848 10383 2852 10362 2855 10350 2875 10293 3005 10204 3211 10216 3172 10041 3783L9884 4330 9919 4340C9958 4350 10114 4377 10170 4383 10189 4385 10276 4388 10363 4388L10520 4390 10515 4338ZM10695 4365C10844 4341 11107 4261 11154 4227 11168 4216 11136 4138 10859 3515 10688 3130 10547 2814 10546 2813 10545 2812 10524 2818 10498 2827L10451 2842 10456 2888C10459 2914 10481 3228 10505 3585 10529 3943 10552 4268 10555 4308 10563 4392 10554 4388 10695 4365ZM2240 3586C2343 3002 2369 2836 2359 2829 2338 2816 2278 2808 2270 2817 2265 2821 2103 3100 1910 3435 1716 3771 1543 4071 1524 4102L1491 4160 1588 4206C1704 4262 1887 4324 2007 4349 2088 4366 2096 4366 2102 4351 2106 4342 2168 3998 2240 3586ZM3050 4293C3163 4256 3388 4155 3412 4132 3416 4128 3257 3846 3060 3505 2745 2960 2696 2880 2652 2842 2614 2809 2596 2800 2581 2805 2569 2808 2560 2819 2560 2828 2560 2837 2619 3184 2692 3598L2825 4352 2870 4345C2895 4341 2976 4318 3050 4293ZM9951 3940C10011 3734 10058 3564 10056 3563 10052 3558 9923 3857 9898 3930 9888 3960 9866 4037 9850 4100 9834 4164 9814 4232 9805 4252 9797 4273 9790 4294 9790 4299 9790 4309 9817 4319 9834 4316 9839 4315 9892 4146 9951 3940ZM5023 4113C5094 3888 5121 3794 5170 3600 5226 3375 5300 2986 5288 2974 5286 2972 5227 3118 5158 3298L5033 3625 5074 3630 5115 3635 5115 3705 5115 3775 4898 3778 4680 3780 4680 3705 4680 3630 4768 3630 4855 3630 5001 3208 5147 2785 5058 2782C4920 2778 4781 2784 4808 2794 4829 2802 4831 2807 4825 2839 4814 2901 4810 2908 4790 2903 4775 2899 4769 2906 4761 2937 4747 2988 4747 3000 4764 3000 4787 3000 4790 3013 4776 3061 4765 3096 4758 3105 4742 3103 4726 3101 4718 3111 4706 3148 4697 3174 4693 3196 4697 3198 4727 3208 4729 3216 4712 3263 4697 3304 4692 3310 4673 3305 4655 3301 4649 3307 4634 3345 4618 3388 4618 3391 4635 3404 4651 3416 4651 3419 4631 3459 4614 3492 4604 3500 4587 3498 4571 3496 4560 3505 4542 3537L4519 3579 4540 3590 4561 3601 4539 3638C4507 3691 4503 3695 4486 3681 4474 3671 4467 3675 4444 3710 4419 3747 4418 3752 4433 3767 4447 3781 4446 3786 4423 3822 4409 3843 4400 3864 4404 3868 4418 3882 4955 4289 4961 4289 4964 4290 4992 4210 5023 4113ZM9750 4188C9750 4183 9746 4180 9742 4180 9731 4180 9690 4267 9698 4274 9704 4280 9748 4205 9750 4188ZM11343 4134C11447 4075 11605 3961 11683 3889L11730 3845 11353 3455C11146 3241 10905 2991 10818 2901L10660 2737 10621 2764 10582 2791 10882 3463C11047 3833 11188 4150 11196 4169 11213 4209 11209 4209 11343 4134ZM9495 4128C9506 4100 9508 4084 9501 4082 9495 4080 9490 4074 9490 4070 9490 4065 9566 3884 9660 3669 9753 3453 9829 3275 9827 3274 9824 3271 9269 4037 9267 4047 9265 4056 9449 4170 9466 4170 9473 4170 9485 4151 9495 4128ZM1846 3460C2057 3095 2230 2793 2230 2789 2230 2775 2149 2730 2136 2737 2107 2755 960 3722 960 3729 960 3740 1135 3911 1200 3963 1286 4033 1434 4130 1449 4128 1456 4126 1635 3826 1846 3460ZM3537 4053C3630 3990 3733 3904 3808 3828L3871 3764 3344 3364C3054 3145 2810 2961 2802 2956 2790 2949 2791 2955 2806 2981 2817 3000 2967 3259 3140 3558 3312 3856 3456 4100 3461 4100 3465 4100 3499 4079 3537 4053ZM9573 3547 9918 3074 9993 2900C10035 2805 10067 2723 10064 2718 10061 2713 10051 2711 10043 2714 10032 2719 8793 3548 8771 3566 8765 3571 8878 3709 8954 3789 9024 3862 9206 4020 9221 4020 9225 4020 9384 3807 9573 3547ZM11806 3768C11874 3697 11950 3600 12009 3510 12076 3409 12127 3313 12119 3305 12116 3302 11805 3149 11429 2965L10745 2631 10718 2663C10703 2681 10692 2699 10693 2704 10697 2716 11752 3810 11760 3810 11763 3810 11784 3791 11806 3768ZM1528 3191 2117 2696 2087 2653C2070 2629 2052 2610 2047 2610 2042 2610 1714 2728 1318 2872L599 3133 605 3159C633 3271 897 3700 930 3688 935 3686 1203 3463 1528 3191ZM4103 3460C4148 3387 4252 3177 4264 3133 4270 3115 4264 3109 4218 3092 4189 3081 3971 3002 3734 2916L3304 2760 3125 2762 2947 2765 3485 3172 4022 3580 4039 3557C4049 3545 4077 3501 4103 3460ZM9382 3104C9730 2870 10017 2676 10019 2674 10023 2671 9986 2587 9975 2572 9974 2571 9637 2653 9226 2756 8651 2900 8480 2946 8480 2958 8480 2986 8542 3155 8590 3257 8635 3353 8736 3530 8746 3530 8748 3530 9035 3338 9382 3104ZM12233 3049C12252 2992 12277 2900 12288 2845 12321 2686 12323 2670 12308 2665 12298 2662 10986 2524 10811 2507 10791 2505 10785 2512 10773 2544 10766 2566 10763 2587 10767 2591 10772 2596 11083 2750 11460 2934L12145 3268 12172 3211C12186 3180 12214 3107 12233 3049ZM1284 2839C1664 2701 1989 2582 2006 2575L2038 2562 2022 2506 2007 2450 1238 2450 470 2450 470 2526C470 2627 494 2789 530 2925 561 3046 576 3090 586 3090 590 3090 904 2977 1284 2839ZM4309 3003C4334 2920 4365 2781 4359 2776 4353 2771 3446 2760 3452 2765 3457 2770 4272 3069 4282 3070 4286 3070 4298 3040 4309 3003ZM9213 2716C9618 2616 9952 2531 9955 2529 9957 2526 9956 2500 9953 2469L9948 2414 9201 2336C8791 2293 8446 2257 8435 2256 8416 2255 8415 2262 8412 2427 8410 2542 8414 2633 8424 2697 8443 2823 8460 2900 8468 2900 8472 2899 8807 2817 9213 2716ZM5071 2643C5022 2594 4984 2546 4969 2513 4946 2463 4944 2461 4904 2460 4876 2460 4860 2465 4856 2475 4853 2483 4841 2490 4830 2490 4813 2490 4810 2496 4810 2540 4810 2584 4813 2590 4831 2590 4849 2590 4851 2595 4848 2643 4845 2690 4843 2695 4823 2692 4807 2690 4800 2694 4800 2704 4800 2718 4823 2720 4975 2720L5149 2720 5071 2643ZM4375 2700C4378 2695 4384 2636 4387 2570L4393 2450 4197 2450C3967 2450 3660 2463 3245 2490 2876 2515 2828 2520 2833 2533 2835 2539 2926 2578 3036 2619L3235 2694 3455 2700C3840 2711 4368 2711 4375 2700ZM3119 2695C3116 2693 3047 2666 2964 2636 2815 2582 2815 2582 2803 2603 2784 2637 2787 2645 2827 2673 2863 2699 2870 2700 2994 2700 3065 2700 3121 2698 3119 2695ZM12327 2398C12323 2170 12301 2000 12276 2000 12270 2000 11934 2083 11530 2183L10795 2365 10792 2413C10790 2439 10790 2460 10792 2460 10857 2469 12267 2618 12294 2619L12332 2620 12327 2398ZM2016 2354C2021 2324 2023 2297 2019 2294 2004 2285 605 1778 591 1776 558 1773 483 2099 473 2288L467 2410 1236 2410 2006 2410 2016 2354ZM9968 2318C9974 2289 9977 2263 9972 2258 9961 2247 8614 1590 8602 1590 8587 1590 8523 1749 8485 1880 8451 1997 8413 2197 8423 2206 8428 2212 9857 2367 9920 2369 9954 2370 9956 2369 9968 2318ZM12270 1938C12270 1872 12101 1473 12043 1401L12023 1377 11389 1804C10711 2261 10743 2235 10768 2301L10779 2328 11524 2141C12146 1986 12270 1952 12270 1938ZM2047 2208C2053 2184 2060 2156 2064 2145 2068 2128 1975 2046 1497 1647L925 1168 902 1197C798 1324 594 1677 602 1718 604 1728 850 1822 1310 1990 1698 2132 2020 2248 2025 2249 2031 2250 2040 2231 2047 2208ZM10038 2174 10070 2129 9963 2015C9903 1953 9664 1704 9430 1462L9005 1021 8957 1068C8896 1127 8793 1254 8734 1342 8679 1426 8616 1539 8622 1545 8628 1551 9993 2219 10001 2220 10004 2220 10021 2199 10038 2174ZM2985 2190C3094 2180 3103 2177 3675 1969 3994 1853 4258 1755 4263 1751 4270 1744 4235 1645 4218 1625 4213 1620 4070 1592 3901 1565L3592 1514 3193 1848C2974 2032 2794 2186 2792 2191 2787 2203 2848 2202 2985 2190ZM11351 1779C11684 1555 11967 1363 11979 1353L12002 1334 11940 1250C11876 1164 11648 928 11597 895 11570 878 11569 878 11555 896 11548 906 11344 1187 11102 1519L10662 2124 10692 2162C10709 2182 10728 2196 10734 2193 10740 2189 11018 2003 11351 1779ZM3605 2149C3721 2143 3939 2135 4090 2131L4365 2125 4362 2090C4358 2046 4313 1859 4297 1821L4285 1793 3781 1976C3504 2077 3275 2162 3271 2166 3268 2169 3294 2170 3330 2166 3366 2163 3490 2155 3605 2149ZM3154 1828C3360 1656 3529 1512 3529 1509 3530 1506 3428 1487 3303 1467 3121 1437 3074 1432 3064 1442 3058 1449 2971 1597 2871 1770L2690 2084 2722 2117C2740 2136 2760 2148 2767 2146 2774 2143 2948 2000 3154 1828ZM4962 2061C5010 1959 5093 1874 5190 1828 5228 1810 5259 1793 5259 1790 5260 1785 4739 1699 4713 1700 4706 1700 4704 1709 4709 1728 4715 1748 4723 1755 4740 1755 4757 1755 4766 1763 4770 1780 4791 1860 4791 1860 4770 1860 4747 1860 4746 1870 4761 1923 4768 1950 4776 1960 4791 1960 4812 1960 4815 1965 4825 2023 4830 2056 4828 2062 4811 2067 4796 2071 4790 2080 4790 2100 4790 2132 4801 2136 4880 2139L4925 2140 4962 2061ZM10153 2073C10176 2058 10197 2045 10199 2043 10201 2042 10062 1724 9889 1336L9576 632 9480 680C9427 707 9336 760 9279 799 9172 871 9040 976 9040 989 9040 996 10100 2100 10107 2100 10109 2100 10129 2088 10153 2073ZM11084 1472C11329 1135 11530 855 11530 851 11530 810 10995 539 10970 567 10965 573 10628 1733 10545 2030 10541 2046 10620 2102 10631 2091 10635 2088 10839 1809 11084 1472ZM2122 2057C2140 2038 2163 2019 2174 2013 2191 2004 2162 1949 1830 1374 1630 1028 1464 741 1459 736 1450 726 1347 789 1236 873 1145 943 960 1117 961 1134 961 1141 2063 2077 2087 2089 2087 2090 2103 2075 2122 2057ZM2839 1741C2939 1569 3019 1426 3018 1424 3013 1420 2716 1370 2693 1370 2676 1370 2669 1396 2627 1638 2602 1785 2578 1930 2575 1960L2569 2016 2612 2037C2636 2048 2656 2057 2657 2056 2657 2056 2740 1914 2839 1741ZM10311 2014C10344 2008 10350 2004 10350 1983 10350 1960 10340 1807 10275 885 10261 693 10250 520 10250 501L10250 467 10178 474C10025 489 9693 571 9631 609 9619 617 9677 755 9931 1324 10157 1833 10248 2029 10258 2025 10266 2022 10289 2017 10311 2014ZM10711 1300C10826 901 10921 568 10922 560 10929 526 10613 470 10415 470L10290 470 10291 498C10291 513 10315 858 10343 1265L10395 2004 10440 2016C10465 2023 10489 2027 10494 2026 10499 2025 10596 1698 10711 1300ZM2298 1950C2355 1923 2356 1921 2339 1838 2328 1783 2325 1780 2154 1615 2058 1523 1972 1434 1964 1417 1943 1378 1950 1312 1978 1273 1989 1257 2017 1235 2039 1225 2075 1209 2088 1208 2151 1219 2191 1225 2224 1229 2226 1227 2235 1218 2103 506 2091 502 2035 483 1500 671 1500 709 1500 718 2167 1881 2217 1958 2225 1971 2234 1980 2238 1978 2242 1976 2269 1964 2298 1950ZM2425 1890C2430 1882 2390 1837 2383 1843 2382 1844 2384 1857 2387 1873 2392 1900 2413 1909 2425 1890ZM2595 1577C2615 1462 2629 1365 2625 1362 2618 1355 2297 1301 2291 1306 2289 1307 2299 1372 2313 1449L2338 1588 2422 1672C2468 1717 2515 1770 2526 1788 2551 1831 2550 1832 2595 1577ZM2287 1537C2284 1530 2274 1475 2265 1415 2246 1295 2231 1256 2238 1345 2242 1393 2239 1406 2215 1441 2201 1463 2190 1484 2193 1486 2209 1502 2277 1549 2284 1550 2288 1550 2290 1544 2287 1537ZM4180 1543C4179 1514 3979 1210 3961 1210 3953 1210 3666 1449 3662 1459 3661 1463 3771 1484 3907 1506 4195 1554 4180 1552 4180 1543ZM3766 1313C3856 1238 3930 1173 3930 1169 3930 1154 3781 1003 3697 934 3611 861 3461 755 3455 762 3450 768 3102 1370 3104 1371 3108 1375 3550 1448 3574 1449 3597 1450 3635 1423 3766 1313ZM3244 1041C3374 816 3417 734 3408 728 3371 703 3180 616 3099 586 2999 550 2832 504 2827 511 2820 519 2686 1300 2691 1304 2693 1306 2774 1321 2870 1337 2995 1358 3048 1363 3057 1356 3063 1350 3148 1208 3244 1041ZM2713 901C2751 685 2780 506 2777 503 2764 490 2555 470 2430 471 2298 471 2165 482 2152 494 2145 502 2269 1222 2280 1233 2288 1242 2618 1300 2635 1296 2640 1295 2675 1117 2713 901Z"/></g></svg>